<?xml version="1.0" encoding="utf-8"?>
<svg version="1.1" id="twowind"
	xmlns="http://www.w3.org/2000/svg"
	xmlns:xlink="http://www.w3.org/1999/xlink" x="0px" y="0px" viewBox="0 0 4000 1000" style="enable-background:new 0 0 4000 1000;" xml:space="preserve" fill='none' stroke='#000000' stroke-width='5' stroke-miterlimit='10'>
	<g>
		<g>
			<path class="st0" d="M178.8,689.5c8.1-35.5,17.3-71.4,27.5-107.6c10.2-36.2,20.1-72.1,29.7-107.6c4.1-14.8,7.7-28.2,10.8-40.3
			c3.1-12.1,5.7-23.1,7.9-32.9c2.1-9.8,3.7-18.8,4.8-26.8c1.1-8,1.6-15.5,1.6-22.3c0-1.3,0-2.7,0-4.3c0-1.6-0.1-3.6-0.3-5.9
			c-2.1,0-6.9,1.2-14.3,3.5c-7.4,2.4-16.1,5.5-26,9.3c-10,3.9-20.5,8.2-31.5,13c-11,4.8-21.3,9.7-30.7,14.6
			c-7.5,3.9-13.8,7.1-18.8,9.6c-5,2.6-9.4,4.6-13,5.9c-3.6,1.4-7,2.4-10,2.9c-3,0.5-6.1,0.8-9.3,0.8c-6.6,0-12.4-2.6-17.2-7.7
			c-4.8-5.1-7.2-11.8-7.2-19.9c0-4.7,0.5-8.8,1.4-12.4c1-3.5,2.5-6.7,4.5-9.5c2-2.8,4.8-5.4,8.2-7.9c3.4-2.5,7.6-5,12.5-7.5
			c54.2-28.3,109-49,164.5-62.2c55.5-13.2,111.2-19.8,167-19.8c4.5,0,9.8,0.1,16.1,0.3c6.2,0.2,12.6,0.6,19.1,1.1
			c6.5,0.5,12.9,1.3,19.1,2.2c6.2,1,11.7,2.1,16.4,3.4c4.9,1.5,9.2,4.6,12.9,9.3c3.6,4.7,5.5,9.7,5.5,15.1c0,4.3-0.4,8.5-1.1,12.5
			c-0.8,4.1-2.1,7.6-4,10.6c-1.9,3-4.4,5.4-7.5,7.2c-3.1,1.8-6.9,2.7-11.4,2.7c-7.7-0.9-16.5-1.9-26.5-3.2c-10-1.3-20-1.9-30-1.9
			c-20.1,0-40.2,0.5-60.2,1.4c-20,1-40.5,3.8-61.5,8.5c-1.1,0.4-1.8,1.6-2.1,3.4c-0.3,1.8-0.6,4.1-0.8,6.9
			c-0.6,11.6-1.6,21.7-2.9,30.5c-1.3,8.8-3.1,17.6-5.3,26.3c-2.2,8.8-5,18.3-8.2,28.4c-3.2,10.2-7,22.4-11.2,36.6
			c-4.3,14.2-9.3,31.3-14.9,51.1c-5.7,19.8-11.9,43.7-18.8,71.8l-15.4,62.3c-3.6,14.3-6.5,27.3-8.5,38.7c-2,11.5-3.8,22.8-5.3,33.9
			c-0.9,3.6-4.1,7.1-9.8,10.3c-5.7,3.2-12.4,4.8-20.1,4.8c-4.5,0-8.6-1.2-12.2-3.7c-3.6-2.5-6.6-5.6-9-9.5c-2.4-3.9-4-8.1-4.8-12.7
			C177.3,698.6,177.6,694,178.8,689.5z"/>
			<path class="st0" d="M204.2,733.1c-5.3,0-10.2-1.5-14.5-4.4c-4.1-2.8-7.5-6.4-10.2-10.7c-2.6-4.3-4.4-9-5.3-14
			c-1-5.2-0.7-10.3,0.7-15.4c8.1-35.4,17.4-71.7,27.5-107.7c10.2-36.3,20.2-72.5,29.7-107.6c4.1-14.8,7.7-28.4,10.7-40.3
			c3.1-12,5.7-23,7.8-32.8c2.1-9.7,3.7-18.6,4.8-26.5c1-7.8,1.6-15.2,1.6-21.8v-4.3c0-0.4,0-0.8,0-1.3c-2,0.5-5,1.3-9.4,2.7
			c-7.3,2.3-16,5.4-25.8,9.2c-9.9,3.8-20.4,8.2-31.3,12.9c-10.9,4.7-21.1,9.6-30.4,14.5c-7.5,3.9-13.8,7.1-18.8,9.7
			c-5.2,2.6-9.7,4.7-13.4,6.1c-3.9,1.5-7.5,2.5-10.7,3.1c-3.2,0.6-6.6,0.9-10,0.9c-7.8,0-14.5-3-20.1-9c-5.5-5.9-8.3-13.5-8.3-22.7
			c0-5,0.5-9.6,1.6-13.4c1.1-4,2.8-7.6,5.1-10.8c2.3-3.1,5.3-6.1,9.1-8.8c3.6-2.6,8-5.2,13-7.8c54.2-28.3,109.9-49.3,165.4-62.5
			c55.5-13.2,112-19.9,168-19.9c4.5,0,9.8,0.1,16.2,0.3c6.2,0.2,12.7,0.6,19.3,1.1c6.6,0.5,13.1,1.3,19.4,2.3c6.3,1,12,2.1,16.8,3.5
			l0.1,0c5.7,1.7,10.7,5.3,14.8,10.7c4.2,5.4,6.3,11.3,6.3,17.5c0,4.5-0.4,9-1.2,13.3c-0.8,4.6-2.4,8.6-4.6,12
			c-2.3,3.5-5.3,6.4-8.9,8.5c-3.7,2.2-8.2,3.3-13.4,3.3l-0.4,0c-7.6-0.8-16.3-1.9-26.6-3.2c-9.7-1.3-19.7-1.9-29.5-1.9
			c-20,0-40.2,0.5-60,1.4c-19.3,0.9-39.4,3.7-59.8,8.2c0,0.1-0.1,0.2-0.1,0.4c-0.3,1.7-0.6,3.9-0.8,6.5c-0.6,11.5-1.6,21.9-2.9,30.8
			c-1.3,8.9-3.1,17.9-5.4,26.8c-2.3,8.8-5,18.4-8.3,28.6c-3.2,10.2-7,22.5-11.2,36.6c-4.3,14.2-9.3,31.3-14.9,51
			c-5.6,19.7-11.9,43.8-18.8,71.6l-15.4,62.3c-3.6,14.2-6.4,27.1-8.5,38.4c-2,11.3-3.8,22.7-5.3,33.7l-0.1,0.4
			c-1.1,4.8-5,9-11.7,12.8C220,731.3,212.6,733.1,204.2,733.1z M260.8,337.6h3.7l0.3,3.6c0.2,2.5,0.3,4.6,0.3,6.3v4.3
			c0,7-0.6,14.7-1.6,22.9c-1.1,8.1-2.7,17.2-4.9,27.1c-2.1,9.8-4.8,21-7.9,33.1c-3.1,11.9-6.7,25.5-10.8,40.4
			c-9.5,35.1-19.5,71.3-29.7,107.6c-10.1,36-19.3,72.1-27.4,107.4l-0.1,0.2c-1.1,3.9-1.3,7.9-0.6,11.8c0.8,4.1,2.2,7.9,4.3,11.3
			c2,3.4,4.7,6.1,7.8,8.2c3,2,6.3,3,10,3c7,0,13.1-1.4,18.1-4.3c4.5-2.5,7.2-5.1,7.8-7.6c1.5-11.1,3.3-22.5,5.3-33.8
			c2-11.5,4.9-24.6,8.6-39l15.4-62.3c6.8-28,13.2-52.2,18.8-71.9c5.6-19.7,10.7-36.9,15-51.1c4.2-14.1,8-26.4,11.3-36.7
			c3.2-10.1,5.9-19.6,8.1-28.2c2.2-8.6,4-17.3,5.2-25.9c1.3-8.6,2.2-18.8,2.9-30.2c0.2-3,0.5-5.4,0.9-7.4c0.7-4.1,2.9-5.7,4.5-6.4
			l0.3-0.1l0.3-0.1c21.1-4.7,42.1-7.6,62.2-8.6c20-1,40.3-1.5,60.4-1.5c10.2,0,20.5,0.7,30.5,2c10.1,1.3,18.7,2.3,26.2,3.2
			c3.7,0,6.7-0.8,9.2-2.2c2.6-1.5,4.6-3.5,6.2-5.9c1.6-2.5,2.8-5.6,3.4-9.2c0.7-3.8,1.1-7.8,1.1-11.8c0-4.5-1.5-8.6-4.6-12.7
			c-3.1-4.1-6.7-6.6-10.8-7.9c-4.5-1.2-9.9-2.3-15.9-3.3c-6.1-0.9-12.4-1.7-18.8-2.2c-6.5-0.5-12.8-0.9-18.9-1.1
			c-6.3-0.2-11.5-0.3-15.9-0.3c-55.3,0-111.2,6.6-166.1,19.6C220,291.2,164.9,312,111.3,340c-4.7,2.5-8.8,4.9-12,7.3
			c-3.1,2.2-5.5,4.6-7.3,7c-1.7,2.4-3,5.1-3.9,8.2c-0.9,3.2-1.3,7-1.3,11.3c0,7.1,2,12.8,6.1,17.2c4.1,4.3,8.7,6.4,14.3,6.4
			c3,0,5.9-0.2,8.6-0.7c2.7-0.5,5.8-1.4,9.2-2.7c3.5-1.3,7.7-3.3,12.6-5.8c5-2.6,11.3-5.8,18.8-9.6c9.5-4.9,19.9-9.9,30.9-14.7
			c11-4.8,21.7-9.2,31.6-13.1c9.9-3.8,18.8-7,26.2-9.4C255.6,338,259,337.6,260.8,337.6z"/>
		</g>
		<g>
			<path class="st0" d="M481.1,597.3c4.7-19.5,10.9-39.8,18.5-61c7.6-21.2,15.6-42.8,23.9-64.9c8.4-22.1,16.6-44.5,24.7-67.3
			c8.1-22.8,15.1-45.6,20.9-68.3c1.5-5.6,2.8-10.7,3.9-15.4c1.1-4.7,2.1-9.7,3.2-15.1c2.6-5.6,6-9.8,10.4-12.9
			c4.4-3,9.2-4.5,14.3-4.5c4.7,0,9.2,0.8,13.3,2.2c4.2,1.5,7.8,3.9,10.9,7.2c3.1,3.3,5.6,7.5,7.4,12.7c1.8,5.1,2.7,11.2,2.7,18.3
			c0,7.7-1.2,16.5-3.5,26.3c-8.4,21.4-16.8,42.4-25.4,63c-8.6,20.6-16.9,40.7-24.9,60.4c-8,19.7-15.5,39.2-22.3,58.5
			c-6.9,19.3-12.7,38.3-17.7,57.2c-0.4,1.5-1.3,4.8-2.6,9.8c-1.3,5-2.6,11.1-4,18.2c-1.4,7.1-2.6,14.6-3.7,22.6
			c-1.1,8-1.6,15.8-1.6,23.3c0,5.1,0.3,10,1,14.6c0.6,4.6,1.7,8.6,3.2,12c1.5,3.4,3.5,6.1,6.1,8c2.6,1.9,5.8,2.9,9.6,2.9
			c8.1,0,18.1-4.2,29.9-12.7c11.8-8.5,24.5-20,38.2-34.5c13.7-14.6,27.8-31.6,42.2-51.1c14.5-19.5,28.5-40.4,42.2-62.6
			c13.7-22.3,26.4-45.2,38.2-68.7c11.8-23.6,21.7-46.8,29.9-69.7c1.9-4.1,4.3-6.7,7.1-7.9c2.8-1.2,6.4-1.8,10.9-1.8
			c8.4,0,15.4,2.5,21,7.5c5.7,5,8.5,11.5,8.5,19.4c0,1.9-0.2,3.7-0.6,5.5c-0.4,1.7-1.1,3.7-1.9,6.1l-4.5,13.2
			c-3.4,10.1-6.7,19.3-9.8,27.8c-3.1,8.5-5.6,16.4-7.5,23.9c-2.8,10.7-5,20.5-6.7,29.4c-1.7,8.9-3.1,17.2-4,25.1
			c-1,7.8-1.6,15.5-1.9,23c-0.3,7.5-0.5,15.1-0.5,22.8c0,3,0.3,7.4,0.8,13.2c0.5,5.8,1.3,12.2,2.4,19.1c1.1,7,2.5,14,4.3,21.2
			c1.8,7.2,4,13.8,6.4,19.8c2.5,6,5.4,10.9,8.7,14.6c3.3,3.8,7.1,5.6,11.4,5.6c6.6,0,13.7-2.7,21-8.2s14.8-13,22.3-22.5
			c7.5-9.5,15-20.7,22.6-33.6c7.6-12.8,15-26.7,22.2-41.4c7.2-14.8,14-30.1,20.6-45.9c6.5-15.8,12.5-31.5,18-47.1
			c5.5-15.5,10.3-30.5,14.5-45c4.2-14.5,7.5-27.7,10.1-39.7c2.4-11.3,4.4-22.4,6.1-33.1c1.7-10.7,3.4-21.4,5.1-32.1
			c1.7-10.7,3.6-21.5,5.6-32.3c2-10.8,4.5-21.9,7.5-33.2c1.1-4.1,2.7-8.2,4.8-12.5c2.1-4.3,4.8-8.2,7.9-11.7
			c3.1-3.5,6.5-6.4,10.1-8.7c3.6-2.2,7.4-3.4,11.2-3.4c9.6,0,16.2,2.6,19.6,7.9c3.4,5.3,5.1,14,5.1,26.2c0,9-0.8,19.5-2.4,31.5
			c-1.6,12-3.6,24.6-6.1,37.7c-2.5,13.2-5.2,26.5-8.2,40c-3,13.5-6,26.2-9,38.2c-6,24.4-13.9,49.7-23.8,76
			c-9.9,26.2-20.8,51.8-32.9,76.8c-12.1,25-25,48.5-38.5,70.5c-13.6,22.1-27.3,41-41,56.9c-4.7,5.6-10.3,11.2-16.7,17
			c-6.4,5.8-13.3,11-20.7,15.7s-14.9,8.6-22.5,11.7c-7.6,3.1-14.9,4.7-22,4.7c-14.8,0-27.1-4.3-37.1-13c-10-8.7-18.1-20.2-24.4-34.7
			c-6.3-14.5-11.1-30.9-14.5-49.5c-3.3-18.5-5.7-37.6-7.2-57.3c-12,17.8-23,33.6-32.9,47.5c-10,13.9-20.1,26.8-30.4,38.5
			c-7.7,8.8-16.4,18.3-26,28.4c-9.6,10.2-19.9,19.6-30.7,28.3c-10.8,8.7-21.9,15.8-33.2,21.5c-11.4,5.7-22.5,8.5-33.4,8.5
			c-12.6,0-23.2-2.2-31.6-6.6c-8.5-4.4-15.3-10.4-20.4-18.2c-5.1-7.7-8.8-16.8-11.1-27.3c-2.2-10.5-3.4-21.8-3.4-34.1
			c0-14.1,1.2-28.7,3.5-43.7C474.5,627.3,477.5,612.3,481.1,597.3z"/>
			<path class="st0" d="M535.1,776.1c-13.2,0-24.5-2.4-33.5-7c-9-4.7-16.4-11.2-21.9-19.5c-5.4-8.1-9.3-17.8-11.7-28.7
			c-2.3-10.7-3.5-22.5-3.5-34.9c0-14.3,1.2-29.2,3.6-44.3c2.4-15,5.4-30.3,9.1-45.3l0,0c4.7-19.5,11-40.2,18.6-61.4
			c7.5-20.9,15.6-42.8,24-65c8.2-21.7,16.5-44.3,24.7-67.2c8.1-22.6,15.1-45.5,20.8-67.9c1.5-5.5,2.8-10.7,3.8-15.3
			c1-4.6,2.1-9.6,3.2-15l0.1-0.5l0.2-0.4c2.9-6.2,6.8-11.1,11.8-14.5c5-3.4,10.6-5.2,16.6-5.2c5.1,0,10.1,0.8,14.7,2.5
			c4.8,1.7,9,4.5,12.5,8.3c3.5,3.7,6.2,8.5,8.2,14.1c2,5.6,3,12.2,3,19.6c0,8-1.2,17.2-3.6,27.3l-0.2,0.5
			c-8.3,21.2-16.8,42.4-25.4,63c-8.4,20.2-16.8,40.5-24.9,60.4c-8,19.6-15.5,39.2-22.3,58.3c-6.8,19-12.7,38.2-17.6,56.9
			c-0.4,1.5-1.2,4.5-2.6,9.8c-1.3,5-2.6,11-4,17.9c-1.4,6.9-2.6,14.5-3.7,22.4c-1,7.8-1.6,15.5-1.6,22.8c0,4.9,0.3,9.7,0.9,14.1
			c0.6,4.2,1.6,7.9,2.9,11c1.2,2.8,2.8,4.9,4.8,6.4c1.9,1.4,4.2,2.1,7.2,2.1c7.2,0,16.5-4,27.5-11.9c11.5-8.3,24.2-19.7,37.6-34
			c13.6-14.4,27.7-31.5,41.9-50.7c14.3-19.3,28.5-40.3,42.1-62.4c13.6-22.1,26.4-45.1,38.1-68.4c11.7-23.3,21.6-46.6,29.7-69.3
			l0.2-0.4c2.4-5,5.4-8.3,9.1-9.8c3.3-1.4,7.5-2.1,12.5-2.1c9.3,0,17.3,2.9,23.7,8.6c6.5,5.8,9.9,13.4,9.9,22.4
			c0,2.2-0.3,4.4-0.8,6.4c-0.5,1.9-1.1,4-2,6.5l-4.5,13.1c-3.4,10-6.7,19.4-9.8,27.9c-3,8.3-5.5,16.2-7.4,23.6
			c-2.8,10.6-5,20.4-6.7,29.2c-1.7,8.7-3,17.1-4,24.8c-0.9,7.7-1.6,15.3-1.9,22.7c-0.3,7.4-0.5,15-0.5,22.6c0,2.9,0.3,7.2,0.8,12.8
			c0.5,5.7,1.3,12,2.4,18.9c1,6.8,2.5,13.8,4.3,20.8c1.8,7,3.9,13.4,6.2,19.2c2.3,5.6,5,10.1,8,13.5c2.5,2.9,5.3,4.3,8.4,4.3
			c5.7,0,12-2.5,18.7-7.4c7.1-5.2,14.3-12.5,21.6-21.7c7.3-9.3,14.9-20.5,22.3-33.1c7.5-12.7,14.9-26.5,22-41.2
			c7.1-14.6,14-30,20.5-45.7c6.5-15.7,12.5-31.5,17.9-46.9c5.4-15.4,10.2-30.4,14.4-44.8c4.1-14.3,7.5-27.6,10.1-39.4
			c2.3-11.2,4.4-22.3,6.1-32.9c1.7-10.7,3.4-21.4,5.1-32.1c1.7-10.8,3.6-21.7,5.6-32.4c2-10.9,4.6-22.2,7.6-33.5
			c1.1-4.3,2.9-8.8,5.1-13.3c2.3-4.6,5.1-8.8,8.4-12.6c3.3-3.8,7.1-7,11-9.4c4.3-2.6,8.8-4,13.3-4c11,0,18.7,3.3,22.9,9.7
			c3.9,6,5.8,15.3,5.8,28.4c0,9.1-0.8,19.9-2.4,32c-1.6,11.9-3.7,24.7-6.1,38c-2.5,13.1-5.2,26.6-8.2,40.1c-3,13.5-6,26.4-9,38.3
			c-6,24.4-14,50.1-23.9,76.4c-9.8,26.2-21,52.2-33.1,77.1c-12.1,25-25.1,48.8-38.7,70.9c-13.7,22.1-27.6,41.4-41.3,57.4
			c-4.8,5.6-10.5,11.5-17.1,17.4c-6.6,5.9-13.7,11.3-21.2,16.1c-7.6,4.8-15.3,8.9-23.1,12.1c-8.1,3.3-16,5-23.5,5
			c-15.7,0-29.1-4.7-39.7-14c-10.4-9-18.9-21.2-25.5-36.1c-6.4-14.7-11.4-31.6-14.7-50.4c-2.7-15-4.8-30.6-6.3-46.5
			c-9.6,14.1-18.5,26.9-26.6,38.3c-10,14-20.3,27-30.6,38.9c-7.7,8.8-16.5,18.4-26.1,28.6c-9.7,10.2-20.2,19.9-31.1,28.6
			c-11,8.8-22.4,16.2-34,22C558.4,773.1,546.6,776.1,535.1,776.1z M580.1,306.6c-1.1,5.3-2.1,10.2-3.1,14.7
			c-1.1,4.8-2.4,10-3.9,15.6c-5.8,22.6-12.8,45.7-21,68.6c-8.2,23-16.5,45.6-24.8,67.4c-8.4,22.1-16.4,43.9-23.9,64.8
			c-7.5,21-13.7,41.4-18.3,60.6l0,0c-3.6,14.8-6.6,29.8-8.9,44.7c-2.3,14.7-3.5,29.2-3.5,43.1c0,11.9,1.1,23,3.3,33.2
			c2.1,9.9,5.7,18.7,10.5,25.9c4.7,7.1,11.1,12.8,18.9,16.8c7.9,4.1,17.9,6.1,29.8,6.1c10.2,0,20.9-2.7,31.6-8.1
			c11.1-5.5,22-12.6,32.5-21.1c10.6-8.5,20.8-17.9,30.3-27.9c9.6-10.1,18.3-19.6,25.9-28.3c10.1-11.6,20.3-24.5,30.1-38.2
			c9.9-13.8,20.9-29.8,32.9-47.5l6.4-9.5l0.9,11.5c1.5,19.5,3.9,38.6,7.2,56.9c3.2,18.1,8,34.5,14.2,48.6c6,13.8,13.9,25,23.4,33.3
			c9.2,8,20.8,12,34.5,12c6.5,0,13.4-1.5,20.5-4.4c7.3-3,14.7-6.8,21.8-11.4c7.2-4.6,14-9.7,20.2-15.3c6.3-5.6,11.8-11.2,16.3-16.6
			c13.5-15.6,27.2-34.6,40.6-56.4c13.5-21.8,26.4-45.4,38.4-70.2c12-24.7,23-50.4,32.8-76.4c9.7-26,17.7-51.4,23.6-75.5
			c3-11.9,6-24.7,9-38.1c3-13.4,5.7-26.8,8.2-39.9c2.4-13.1,4.5-25.7,6.1-37.5c1.6-11.8,2.4-22.2,2.4-31c0-11.4-1.5-19.4-4.5-24
			c-2.6-4-8.1-6.1-16.2-6.1c-3.1,0-6.1,0.9-9.1,2.8c-3.3,2-6.4,4.7-9.2,7.9c-2.9,3.3-5.3,6.9-7.3,10.9c-2,4-3.5,8-4.5,11.8
			c-3,11.2-5.5,22.3-7.5,33c-2,10.7-3.9,21.5-5.6,32.2c-1.7,10.7-3.4,21.4-5.1,32.1c-1.7,10.7-3.8,21.9-6.1,33.3
			c-2.6,12-6,25.5-10.2,40c-4.2,14.5-9.1,29.7-14.5,45.2c-5.4,15.5-11.5,31.4-18.1,47.3c-6.5,15.9-13.5,31.4-20.7,46.2
			c-7.2,14.8-14.7,28.8-22.3,41.7c-7.7,13-15.4,24.4-22.9,34c-7.7,9.8-15.5,17.6-23.1,23.2c-8.1,6-15.9,9-23.4,9
			c-5.5,0-10.3-2.3-14.4-7c-3.6-4.1-6.8-9.4-9.4-15.8c-2.5-6.1-4.7-13-6.6-20.3c-1.8-7.3-3.3-14.5-4.4-21.6
			c-1.1-7-1.9-13.5-2.4-19.4c-0.5-5.9-0.8-10.4-0.8-13.5c0-7.7,0.2-15.5,0.5-23c0.3-7.6,1-15.4,2-23.3c1-7.9,2.3-16.4,4.1-25.3
			c1.7-8.9,4-18.9,6.8-29.6c2-7.6,4.5-15.8,7.7-24.3c3.1-8.5,6.4-17.8,9.8-27.7l4.5-13.2c0.8-2.3,1.4-4.2,1.8-5.8
			c0.3-1.4,0.5-2.9,0.5-4.5c0-6.8-2.3-12.2-7.2-16.4c-5-4.4-11-6.5-18.4-6.5c-3.9,0-7.1,0.5-9.4,1.5c-1.8,0.8-3.5,2.7-4.9,5.7
			c-8.1,22.9-18.2,46.4-30,70c-11.8,23.5-24.7,46.8-38.4,69.1c-13.7,22.3-28,43.5-42.4,62.9c-14.5,19.5-28.8,36.8-42.5,51.4
			c-13.8,14.7-26.9,26.5-38.8,35c-12.6,9-23.1,13.4-32.2,13.4c-4.7,0-8.8-1.2-12-3.7c-3.1-2.3-5.6-5.6-7.4-9.6
			c-1.6-3.7-2.8-8.1-3.5-13.1c-0.7-4.8-1-9.9-1-15.2c0-7.7,0.6-15.7,1.6-23.8c1.1-8.1,2.3-15.8,3.7-22.9c1.4-7.1,2.8-13.3,4.1-18.4
			c1.4-5.4,2.2-8.4,2.6-9.9c4.9-18.8,10.9-38.2,17.7-57.4c6.8-19.2,14.4-38.9,22.4-58.6c8.1-19.9,16.5-40.2,24.9-60.4
			c8.5-20.5,17-41.6,25.2-62.6c2.2-9.4,3.4-17.9,3.4-25.1c0-6.6-0.8-12.3-2.5-17c-1.6-4.6-3.8-8.4-6.5-11.3
			c-2.7-2.9-5.7-4.9-9.4-6.2c-3.7-1.3-7.8-2-12-2c-4.4,0-8.3,1.2-12,3.8C585.3,298.3,582.3,301.9,580.1,306.6z"/>
		</g>
		<g>
			<path class="st0" d="M1075.8,577.7c3.9-16.1,9.4-32.5,16.7-49.3c7.3-16.8,15.8-33.7,25.7-50.6c9.8-16.9,20.8-33.6,32.9-50
			c12.1-16.4,24.9-32.2,38.5-47.5c13.6-15.3,27.6-29.8,42.1-43.4c14.5-13.6,29-26.1,43.5-37.4c6.9-4.7,13.2-7.8,19-9.3
			c5.8-1.5,11.9-2.2,18.3-2.2c6.9,0,13,1,18.3,3.1c5.4,2,10.7,5.7,16.1,11.1c1.7,1.9,3.5,3.6,5.5,5.1c1.9,1.5,3.7,2.2,5.5,2.2
			c0.4,0,1-0.5,1.6-1.4c0.6-1,1.3-2.1,2.1-3.4c0.7-1.3,1.7-2.6,2.7-4c1.1-1.4,2.4-2.4,3.9-3.1c3.6-1.7,8-2.8,13-3.4
			c5-0.5,10.1-0.8,15.3-0.8c9.6,0,19,1.8,27.9,5.3c9,3.5,16.9,8.5,23.8,14.9c16.3,15.2,28.6,33.4,37.1,54.6
			c8.5,21.2,12.7,44,12.7,68.4c0,21.8-3.2,45.4-9.6,70.7c-5.6,22.3-13.5,43.9-23.9,64.9c-10.4,21-22.6,40.7-36.6,59.1
			c-14,18.4-29.7,35.2-46.9,50.4c-17.2,15.2-35.6,28.3-55.1,39.2c-19.5,10.9-39.8,19.4-61,25.5s-42.7,9.2-64.6,9.2
			c-20.3,0-38.6-3.1-54.8-9.3c-16.2-6.2-29.9-15-41.1-26.3c-11.2-11.3-19.8-24.8-25.7-40.5c-5.9-15.6-8.8-33-8.8-52
			c0-8.1,0.5-16.3,1.4-24.6C1072.1,594.7,1073.6,586.3,1075.8,577.7z M1130.1,599.3c-2.4,10.7-3.5,20.3-3.5,28.9
			c0,12,2.1,22.5,6.3,31.6c4.2,9.1,10.1,16.7,17.7,22.8c7.6,6.1,16.7,10.7,27.3,13.8c10.6,3.1,22.2,4.7,34.9,4.7
			c15,0,30.2-2.4,45.8-7.1c15.5-4.7,30.7-11.6,45.5-20.6c14.8-9,29-19.8,42.7-32.4c13.7-12.6,26.4-27,38.1-43
			c11.7-16.1,22.1-33.5,31.2-52.4c9.1-18.8,16.4-38.9,22-60.1c2.1-7.7,3.7-15.7,4.7-24.1c1-8.4,1.4-16.4,1.4-24.1
			c0-12.4-1.4-24.3-4.2-35.7c-2.8-11.3-7.4-21.4-13.8-30.2c-6.4-8.8-14.9-15.8-25.4-21c-10.5-5.2-23.3-7.9-38.5-7.9
			c-2.1,0-3.8,0.9-5,2.7c-1.2,1.8-2.4,4.1-3.7,6.9c-1.1,2.4-2.3,4.8-3.7,7.4c-1.4,2.6-3.2,4.9-5.5,6.9c-2.2,2-5,3.7-8.4,5
			c-3.3,1.3-7.4,1.9-12.4,1.9c-3.6,0-6.9-0.8-9.6-2.4c-2.8-1.6-5.6-3.8-8.4-6.6c-1.3-1.3-2.4-2.3-3.2-3.1c-0.9-0.7-1.8-1.1-2.9-1.1
			c-1.9,0-4.4,0.9-7.5,2.6c-3.1,1.7-6.3,3.7-9.6,6.1c-3.3,2.4-6.5,4.8-9.6,7.4c-3.1,2.6-5.5,4.8-7.2,6.7c-14.6,15-29.1,31.3-43.5,49
			c-14.5,17.7-27.8,35.9-40,54.8c-12.2,18.8-22.9,37.9-32,57C1140.7,563,1134.1,581.5,1130.1,599.3z"/>
			<path class="st0" d="M1200.1,759.7c-20.7,0-39.7-3.2-56.2-9.6c-16.6-6.4-30.9-15.6-42.5-27.3c-11.6-11.7-20.5-25.8-26.6-41.9
			c-6-16-9.1-34-9.1-53.5c0-8.3,0.5-16.7,1.5-25c1-8.4,2.6-17,4.7-25.7c3.9-16.2,9.6-33,16.9-49.9c7.3-16.9,16-34,25.9-51
			c9.9-17,21-33.9,33.2-50.3c12.1-16.4,25.2-32.5,38.8-47.8c13.6-15.3,27.8-30,42.3-43.6c14.5-13.6,29.2-26.3,43.8-37.7l0.2-0.1
			c7.2-5,14-8.3,20.2-9.9c6.1-1.6,12.6-2.4,19.3-2.4c7.3,0,13.9,1.1,19.7,3.3c5.9,2.2,11.7,6.3,17.5,12l0.2,0.2
			c1.5,1.7,3.2,3.3,4.9,4.6c0.6,0.5,1.2,0.8,1.7,1.1c0.5-0.7,1-1.5,1.5-2.5c0.8-1.4,1.8-2.9,3-4.4c1.5-1.9,3.3-3.3,5.4-4.3
			c4-1.9,8.8-3.1,14.2-3.7c5.2-0.5,10.5-0.8,15.7-0.8c10.1,0,20,1.9,29.4,5.6c9.4,3.7,17.8,9,25,15.7c16.6,15.5,29.4,34.4,38.1,56
			c8.6,21.6,13,45.1,13,69.9c0,22.1-3.3,46.2-9.8,71.7c-5.6,22.4-13.8,44.5-24.2,65.7c-10.5,21.1-22.9,41.2-37,59.8
			c-14.1,18.5-30.1,35.7-47.4,51c-17.4,15.3-36.1,28.7-55.8,39.7c-19.7,11-40.5,19.7-61.9,25.9
			C1244.3,756.6,1222.2,759.7,1200.1,759.7z M1277.6,302.8c-14.4,11.2-28.9,23.7-43.2,37.1c-14.3,13.5-28.4,28-41.8,43.1
			c-13.5,15.2-26.4,31.1-38.3,47.3c-12,16.2-23,32.9-32.7,49.6c-9.7,16.7-18.3,33.6-25.5,50.2c-7.2,16.5-12.7,32.9-16.5,48.7l0,0
			c-2.1,8.4-3.6,16.7-4.6,24.7c-0.9,8.1-1.4,16.2-1.4,24.1c0,18.5,2.9,35.5,8.6,50.6c5.7,15,14,28.2,24.8,39.1
			c10.8,10.9,24.2,19.4,39.7,25.4c15.6,6,33.6,9.1,53.3,9.1c21.4,0,42.7-3,63.5-9c20.8-6,41.1-14.5,60.2-25.2
			c19.2-10.7,37.5-23.8,54.4-38.7c17-15,32.6-31.7,46.4-49.9c13.8-18.1,26-37.8,36.2-58.5c10.2-20.6,18.2-42.2,23.6-64.1
			c6.3-24.8,9.5-48.3,9.5-69.7c0-23.8-4.2-46.3-12.4-66.9c-8.2-20.5-20.4-38.4-36.1-53.2c-6.5-6.1-14-10.8-22.5-14.1
			c-8.5-3.3-17.4-5-26.5-5c-4.9,0-9.9,0.3-14.8,0.8c-4.6,0.5-8.5,1.5-11.7,3l-0.1,0.1c-0.9,0.4-1.6,1-2.3,1.8
			c-1,1.3-1.8,2.5-2.4,3.6c-0.8,1.4-1.6,2.6-2.2,3.6c-0.5,0.8-2.2,3.2-4.9,3.2c-2.6,0-5.3-1-7.9-3.1c-2.1-1.6-4.1-3.5-5.9-5.5
			c-4.9-4.9-9.8-8.3-14.6-10.1c-4.9-1.9-10.6-2.8-16.9-2.8c-6,0-11.9,0.7-17.3,2.1C1289.9,295.5,1284,298.4,1277.6,302.8z
			 M1355.8,306.2C1355.8,306.2,1355.8,306.2,1355.8,306.2S1355.8,306.2,1355.8,306.2z M1212.6,705.1c-13,0-25.1-1.6-36-4.8
			c-11.1-3.2-20.7-8.1-28.7-14.5c-8.1-6.5-14.4-14.6-18.8-24.3c-4.4-9.6-6.6-20.8-6.6-33.3c0-8.8,1.2-18.8,3.6-29.8l0,0
			c4.1-18,10.9-36.9,20-56.2c9.1-19.2,20-38.6,32.2-57.5c12.2-18.9,25.8-37.4,40.3-55.1c14.4-17.7,29.1-34.2,43.7-49.2
			c1.9-2.1,4.3-4.4,7.6-7.1c3.1-2.6,6.5-5.1,9.9-7.6c3.4-2.4,6.8-4.6,10-6.3c3.7-2.1,6.8-3.1,9.5-3.1c2,0,3.9,0.7,5.5,2.1
			c1,0.9,2.1,2,3.4,3.2c2.5,2.5,5,4.5,7.5,5.9c2.2,1.3,4.7,1.9,7.6,1.9c4.4,0,8.1-0.6,10.9-1.7c2.9-1.1,5.2-2.5,7.1-4.2
			c1.9-1.7,3.5-3.7,4.6-5.9c1.3-2.5,2.5-4.9,3.6-7.1c1.4-3,2.7-5.4,4-7.4c1.9-2.9,4.9-4.6,8.3-4.6c15.8,0,29.3,2.8,40.3,8.3
			c11,5.5,20,13,26.8,22.3c6.7,9.2,11.6,19.8,14.5,31.6c2.8,11.6,4.3,23.9,4.3,36.6c0,7.8-0.5,16.1-1.5,24.6
			c-1,8.5-2.6,16.8-4.8,24.7c-5.6,21.3-13.1,41.8-22.3,60.7c-9.2,19-19.8,36.8-31.5,53c-11.8,16.2-24.8,30.9-38.6,43.6
			c-13.8,12.8-28.4,23.8-43.4,32.9c-15,9.1-30.6,16.2-46.4,21C1243.7,702.7,1227.9,705.1,1212.6,705.1z M1134,600.1
			c-2.3,10.4-3.4,19.8-3.4,28c0,11.4,2,21.4,5.9,30c3.9,8.5,9.5,15.7,16.5,21.4c7.2,5.8,15.9,10.2,25.9,13.1
			c10.2,3,21.5,4.5,33.7,4.5c14.5,0,29.5-2.3,44.6-6.9c15.1-4.6,30.1-11.4,44.5-20.1c14.5-8.8,28.7-19.6,42.1-32
			c13.4-12.4,26.1-26.7,37.5-42.5c11.5-15.8,21.8-33.2,30.8-51.8c8.9-18.5,16.3-38.5,21.7-59.4c2.1-7.5,3.6-15.4,4.6-23.5
			c0.9-8.2,1.4-16.1,1.4-23.6c0-12-1.4-23.7-4.1-34.7c-2.6-10.8-7.1-20.5-13.2-28.8c-6-8.2-14.1-14.9-23.9-19.8
			c-9.9-4.9-22.3-7.4-36.8-7.4c-0.8,0-1.2,0.2-1.6,0.9c-1.1,1.6-2.2,3.8-3.4,6.4c-1.1,2.4-2.4,5-3.8,7.6c-1.6,3-3.7,5.6-6.3,8
			c-2.6,2.4-5.8,4.3-9.6,5.7c-3.8,1.5-8.4,2.2-13.8,2.2c-4.3,0-8.3-1-11.6-2.9c-3.1-1.8-6.2-4.2-9.2-7.2c-1.2-1.2-2.2-2.1-3-2.9
			c-0.1-0.1-0.2-0.1-0.2-0.1c-0.6,0-2.2,0.2-5.6,2.1c-3,1.6-6.1,3.6-9.3,5.9c-3.3,2.3-6.4,4.7-9.4,7.2c-2.9,2.4-5.2,4.6-6.8,6.3
			l-0.1,0.1c-14.4,14.8-29,31.2-43.3,48.7c-14.3,17.5-27.7,35.8-39.7,54.4c-12.1,18.6-22.7,37.6-31.7,56.6
			C1144.5,564.4,1137.9,582.7,1134,600.1z"/>
		</g>
		<g>
			<path class="st0" d="M2200.5,597.3c4.7-19.5,10.9-39.8,18.5-61c7.6-21.2,15.6-42.8,23.9-64.9c8.4-22.1,16.6-44.5,24.7-67.3
			c8.1-22.8,15.1-45.6,20.9-68.3c1.5-5.6,2.8-10.7,3.9-15.4c1.1-4.7,2.1-9.7,3.2-15.1c2.6-5.6,6-9.8,10.4-12.9
			c4.4-3,9.2-4.5,14.3-4.5c4.7,0,9.2,0.8,13.3,2.2c4.2,1.5,7.8,3.9,10.9,7.2c3.1,3.3,5.6,7.5,7.4,12.7c1.8,5.1,2.7,11.2,2.7,18.3
			c0,7.7-1.2,16.5-3.5,26.3c-8.4,21.4-16.8,42.4-25.4,63c-8.6,20.6-16.9,40.7-24.9,60.4c-8,19.7-15.5,39.2-22.3,58.5
			c-6.9,19.3-12.7,38.3-17.7,57.2c-0.4,1.5-1.3,4.8-2.6,9.8c-1.3,5-2.6,11.1-4,18.2c-1.4,7.1-2.6,14.6-3.7,22.6
			c-1.1,8-1.6,15.8-1.6,23.3c0,5.1,0.3,10,1,14.6c0.6,4.6,1.7,8.6,3.2,12c1.5,3.4,3.5,6.1,6.1,8s5.8,2.9,9.6,2.9
			c8.1,0,18.1-4.2,29.9-12.7c11.8-8.5,24.5-20,38.2-34.5c13.7-14.6,27.8-31.6,42.2-51.1c14.5-19.5,28.5-40.4,42.2-62.6
			c13.7-22.3,26.4-45.2,38.2-68.7c11.8-23.6,21.7-46.8,29.9-69.7c1.9-4.1,4.3-6.7,7.1-7.9c2.8-1.2,6.4-1.8,10.9-1.8
			c8.4,0,15.4,2.5,21,7.5c5.7,5,8.5,11.5,8.5,19.4c0,1.9-0.2,3.7-0.6,5.5c-0.4,1.7-1.1,3.7-1.9,6.1l-4.5,13.2
			c-3.4,10.1-6.7,19.3-9.8,27.8c-3.1,8.5-5.6,16.4-7.6,23.9c-2.8,10.7-5,20.5-6.7,29.4c-1.7,8.9-3.1,17.2-4,25.1
			c-1,7.8-1.6,15.5-1.9,23c-0.3,7.5-0.5,15.1-0.5,22.8c0,3,0.3,7.4,0.8,13.2c0.5,5.8,1.3,12.2,2.4,19.1c1.1,7,2.5,14,4.3,21.2
			c1.8,7.2,4,13.8,6.4,19.8c2.5,6,5.4,10.9,8.7,14.6c3.3,3.8,7.1,5.6,11.4,5.6c6.6,0,13.7-2.7,21-8.2s14.8-13,22.3-22.5
			c7.5-9.5,15-20.7,22.6-33.6c7.6-12.8,15-26.7,22.2-41.4c7.2-14.8,14-30.1,20.6-45.9c6.5-15.8,12.5-31.5,18-47.1
			c5.5-15.5,10.3-30.5,14.5-45c4.2-14.5,7.5-27.7,10.1-39.7c2.4-11.3,4.4-22.4,6.1-33.1c1.7-10.7,3.4-21.4,5.1-32.1
			c1.7-10.7,3.6-21.5,5.6-32.3c2-10.8,4.5-21.9,7.6-33.2c1.1-4.1,2.7-8.2,4.8-12.5c2.1-4.3,4.8-8.2,7.9-11.7
			c3.1-3.5,6.5-6.4,10.1-8.7c3.6-2.2,7.4-3.4,11.2-3.4c9.6,0,16.2,2.6,19.6,7.9c3.4,5.3,5.1,14,5.1,26.2c0,9-0.8,19.5-2.4,31.5
			c-1.6,12-3.6,24.6-6.1,37.7c-2.5,13.2-5.2,26.5-8.2,40c-3,13.5-6,26.2-9,38.2c-6,24.4-13.9,49.7-23.8,76
			c-9.9,26.2-20.8,51.8-32.9,76.8c-12.1,25-25,48.5-38.5,70.5c-13.6,22.1-27.3,41-41,56.9c-4.7,5.6-10.3,11.2-16.7,17
			c-6.4,5.8-13.3,11-20.7,15.7s-14.9,8.6-22.5,11.7c-7.6,3.1-14.9,4.7-22,4.7c-14.8,0-27.1-4.3-37.1-13s-18.1-20.2-24.4-34.7
			c-6.3-14.5-11.1-30.9-14.5-49.5c-3.3-18.5-5.7-37.6-7.2-57.3c-12,17.8-23,33.6-32.9,47.5c-10,13.9-20.1,26.8-30.4,38.5
			c-7.7,8.8-16.4,18.3-26,28.4c-9.6,10.2-19.9,19.6-30.7,28.3c-10.8,8.7-21.9,15.8-33.2,21.5c-11.4,5.7-22.5,8.5-33.4,8.5
			c-12.6,0-23.2-2.2-31.6-6.6c-8.5-4.4-15.3-10.4-20.4-18.2c-5.1-7.7-8.8-16.8-11.1-27.3c-2.2-10.5-3.4-21.8-3.4-34.1
			c0-14.1,1.2-28.7,3.5-43.7C2193.8,627.3,2196.8,612.3,2200.5,597.3z"/>
			<path class="st0" d="M2254.4,776.1c-13.2,0-24.5-2.4-33.5-7c-9-4.7-16.4-11.2-21.9-19.5c-5.4-8.1-9.3-17.7-11.7-28.7
			c-2.3-10.7-3.5-22.5-3.5-34.9c0-14.3,1.2-29.2,3.6-44.3c2.4-15,5.4-30.3,9.1-45.3c4.7-19.5,11-40.2,18.6-61.4
			c7.5-20.9,15.6-42.8,24-65c8.2-21.7,16.5-44.3,24.7-67.2c8.1-22.6,15.1-45.5,20.8-67.9c1.5-5.6,2.8-10.7,3.8-15.3
			c1-4.5,2.1-9.6,3.2-15l0.1-0.5l0.2-0.4c2.9-6.2,6.8-11.1,11.8-14.5c5-3.4,10.6-5.2,16.6-5.2c5.1,0,10.1,0.8,14.7,2.5
			c4.8,1.7,9,4.5,12.5,8.3c3.5,3.7,6.2,8.5,8.2,14.1c2,5.6,3,12.2,3,19.6c0,8-1.2,17.2-3.6,27.3l-0.2,0.5
			c-8.3,21.2-16.8,42.4-25.4,63c-8.4,20.2-16.8,40.5-24.9,60.4c-8,19.6-15.5,39.2-22.3,58.3c-6.8,19.1-12.7,38.2-17.6,56.9
			c-0.4,1.5-1.2,4.5-2.6,9.8c-1.3,5-2.6,11-4,17.9c-1.4,6.9-2.6,14.5-3.7,22.4c-1,7.8-1.6,15.5-1.6,22.8c0,4.9,0.3,9.7,0.9,14.1
			c0.6,4.2,1.6,7.9,2.9,11c1.2,2.8,2.8,4.9,4.8,6.4c1.9,1.4,4.2,2.1,7.2,2.1c7.2,0,16.5-4,27.5-11.9c11.5-8.3,24.2-19.7,37.6-34
			c13.5-14.4,27.7-31.5,41.9-50.7c14.3-19.3,28.5-40.3,42.1-62.4c13.6-22.1,26.4-45.1,38.1-68.4c11.7-23.3,21.6-46.6,29.7-69.3
			l0.2-0.4c2.4-5,5.4-8.3,9.1-9.8c3.3-1.4,7.5-2.1,12.5-2.1c9.3,0,17.3,2.9,23.7,8.6c6.5,5.8,9.9,13.4,9.9,22.4
			c0,2.2-0.3,4.4-0.8,6.4c-0.5,1.9-1.1,4-2,6.5l-4.5,13.1c-3.4,10-6.7,19.3-9.8,27.9c-3,8.3-5.5,16.2-7.4,23.6
			c-2.8,10.6-5,20.4-6.7,29.2c-1.7,8.7-3,17-4,24.8c-0.9,7.7-1.6,15.3-1.9,22.7c-0.3,7.4-0.5,15-0.5,22.6c0,2.9,0.3,7.2,0.8,12.8
			c0.5,5.7,1.3,12,2.4,18.9c1,6.8,2.5,13.8,4.3,20.8c1.8,6.9,3.9,13.4,6.2,19.2c2.3,5.6,5,10.1,8,13.5c2.5,2.9,5.3,4.3,8.4,4.3
			c5.7,0,12-2.5,18.7-7.4c7.1-5.2,14.3-12.5,21.6-21.7c7.3-9.3,14.9-20.5,22.3-33.1c7.5-12.7,14.9-26.5,22-41.2
			c7.1-14.6,14-30,20.5-45.7c6.5-15.7,12.5-31.5,17.9-46.9c5.4-15.4,10.2-30.4,14.4-44.8c4.1-14.3,7.5-27.6,10.1-39.4
			c2.3-11.1,4.4-22.2,6.1-32.9l5.1-32.1c1.7-10.7,3.6-21.6,5.6-32.4c2-10.9,4.6-22.2,7.6-33.5c1.1-4.3,2.8-8.8,5.1-13.3
			c2.3-4.6,5.1-8.8,8.4-12.6c3.3-3.8,7.1-7,11-9.4c4.3-2.6,8.8-4,13.3-4c11,0,18.7,3.3,22.9,9.7c3.9,6,5.8,15.3,5.8,28.4
			c0,9.1-0.8,19.9-2.4,32c-1.6,11.9-3.7,24.7-6.1,38c-2.5,13.2-5.2,26.7-8.2,40.1c-3,13.5-6,26.4-9,38.3c-6,24.4-14,50.1-23.9,76.4
			c-9.8,26.2-21,52.2-33.1,77.1c-12.1,25-25.1,48.8-38.7,70.9c-13.7,22.1-27.6,41.5-41.3,57.4c-4.8,5.6-10.5,11.5-17.1,17.4
			c-6.6,5.9-13.7,11.3-21.2,16.1c-7.6,4.8-15.3,8.9-23.1,12.1c-8.1,3.3-16,5-23.5,5c-15.7,0-29.1-4.7-39.7-14
			c-10.4-9-18.9-21.2-25.5-36.1c-6.4-14.7-11.4-31.6-14.7-50.4c-2.7-15-4.8-30.6-6.3-46.5c-9.6,14.1-18.5,26.9-26.7,38.3
			c-10,14-20.3,27-30.6,38.9c-7.7,8.8-16.5,18.4-26.1,28.6c-9.7,10.2-20.2,19.9-31.1,28.6c-11,8.8-22.4,16.2-34,22
			C2277.8,773.1,2265.9,776.1,2254.4,776.1z M2299.4,306.6c-1.1,5.3-2.1,10.2-3.1,14.7c-1.1,4.7-2.4,10-3.9,15.6
			c-5.8,22.6-12.8,45.7-21,68.6c-8.2,22.9-16.5,45.6-24.8,67.4c-8.4,22.1-16.4,43.9-23.9,64.8c-7.5,21-13.7,41.4-18.4,60.6l0,0
			c-3.6,14.8-6.6,29.8-8.9,44.7c-2.3,14.7-3.5,29.2-3.5,43.1c0,11.9,1.1,23,3.3,33.2c2.1,10,5.7,18.7,10.5,25.9
			c4.7,7.1,11.1,12.8,18.9,16.8c7.8,4.1,17.9,6.1,29.8,6.1c10.2,0,20.9-2.7,31.6-8.1c11.1-5.5,22-12.6,32.5-21.1
			c10.6-8.5,20.8-17.9,30.3-27.9c9.6-10.1,18.3-19.6,25.9-28.3c10.1-11.6,20.3-24.5,30.1-38.2c9.9-13.8,20.9-29.8,32.9-47.5l6.4-9.5
			l0.9,11.5c1.5,19.5,3.9,38.6,7.2,56.9c3.2,18.1,8,34.5,14.2,48.6c6,13.8,13.9,25,23.4,33.3c9.2,8,20.8,12,34.5,12
			c6.5,0,13.4-1.5,20.5-4.4c7.3-3,14.7-6.8,21.9-11.4s13.9-9.7,20.2-15.3c6.3-5.6,11.8-11.2,16.3-16.6
			c13.5-15.6,27.2-34.6,40.6-56.4c13.5-21.8,26.4-45.4,38.4-70.2c12-24.7,23-50.5,32.8-76.4c9.7-26,17.7-51.4,23.6-75.5
			c3-11.9,6-24.7,9-38.1c3-13.4,5.7-26.8,8.2-39.9c2.4-13.1,4.5-25.7,6.1-37.5c1.6-11.8,2.4-22.2,2.4-31c0-11.4-1.5-19.4-4.5-24
			c-2.6-4-8.1-6.1-16.2-6.1c-3.1,0-6.1,0.9-9.1,2.8c-3.3,2-6.4,4.7-9.2,7.9c-2.9,3.3-5.3,6.9-7.3,10.9c-2,4-3.5,8-4.5,11.8
			c-3,11.2-5.5,22.3-7.5,33c-2,10.7-3.9,21.5-5.6,32.2l-5.1,32.1c-1.7,10.8-3.8,22-6.1,33.3c-2.6,12-6,25.5-10.2,40
			c-4.2,14.5-9.1,29.7-14.5,45.2c-5.4,15.5-11.5,31.4-18.1,47.3c-6.5,15.9-13.5,31.4-20.7,46.2c-7.2,14.8-14.7,28.8-22.3,41.7
			c-7.7,13-15.4,24.4-22.9,34c-7.7,9.8-15.5,17.6-23.1,23.2c-8.1,6-15.9,9-23.4,9c-5.5,0-10.3-2.3-14.4-7c-3.6-4.1-6.8-9.4-9.4-15.7
			c-2.5-6.2-4.8-13-6.6-20.3c-1.8-7.3-3.3-14.5-4.4-21.6c-1.1-7-1.9-13.5-2.4-19.4c-0.5-5.9-0.8-10.4-0.8-13.5
			c0-7.7,0.2-15.5,0.5-23c0.3-7.6,1-15.4,2-23.3c1-7.9,2.3-16.5,4.1-25.3c1.7-8.9,4-18.9,6.8-29.6c2-7.6,4.5-15.8,7.7-24.3
			c3.1-8.5,6.4-17.8,9.8-27.7l4.5-13.2c0.8-2.3,1.4-4.2,1.8-5.8c0.3-1.4,0.5-2.9,0.5-4.5c0-6.8-2.3-12.2-7.2-16.4
			c-5-4.4-11-6.5-18.4-6.5c-3.9,0-7.1,0.5-9.4,1.5c-1.8,0.8-3.5,2.7-4.9,5.7c-8.1,22.9-18.2,46.4-30,70
			c-11.8,23.5-24.7,46.8-38.4,69.1c-13.7,22.3-28,43.5-42.4,62.9c-14.5,19.5-28.8,36.8-42.5,51.4c-13.8,14.7-26.9,26.5-38.8,35
			c-12.6,9-23.1,13.4-32.2,13.4c-4.7,0-8.8-1.2-12-3.7c-3.1-2.3-5.6-5.6-7.4-9.6c-1.6-3.7-2.8-8.1-3.5-13.1c-0.7-4.8-1-9.9-1-15.2
			c0-7.7,0.6-15.7,1.6-23.8c1.1-8.1,2.3-15.8,3.7-22.9c1.4-7,2.8-13.2,4.1-18.4c1.4-5.4,2.2-8.4,2.6-9.9
			c4.9-18.8,10.9-38.1,17.7-57.4c6.8-19.2,14.4-38.9,22.4-58.6c8.1-19.9,16.5-40.2,24.9-60.4c8.5-20.5,17-41.6,25.2-62.6
			c2.2-9.4,3.4-17.9,3.4-25.1c0-6.6-0.8-12.3-2.5-17c-1.6-4.6-3.8-8.4-6.5-11.3c-2.7-2.9-5.7-4.9-9.3-6.2c-3.7-1.3-7.8-2-12-2
			c-4.4,0-8.3,1.2-12,3.8C2304.6,298.3,2301.6,301.9,2299.4,306.6z"/>
		</g>
		<g>
			<path class="st0" d="M2831.7,556.9c1.9-8.4,4.2-17.6,6.9-27.8c2.7-10.2,5.6-20.7,8.7-31.6c3.1-10.9,6.3-22,9.5-33.1
			c3.2-11.1,6.4-21.8,9.5-32.1c3.1-10.3,5.9-19.9,8.5-28.8c2.6-8.9,4.8-16.4,6.7-22.6c4.1-13.9,7.9-27.9,11.6-41.9
			c3.6-14,7.2-28.8,10.6-44.2c4.3-8.4,10.1-14.3,17.3-17.8c7.3-3.5,15.2-5.3,23.8-5.3c6.9,3.6,12.3,8.6,16.2,14.9
			c4,6.3,5.9,13.4,5.9,21.4c0,5.6-0.9,11.9-2.7,19.1c-1.8,7.2-4.1,14.9-6.9,23.1c-2.8,8.2-5.9,16.9-9.3,26
			c-3.4,9.1-6.7,18.5-10,28.1c-6,17.6-12,35.1-18,52.7c-6,17.6-11.9,36.1-17.7,55.6c-1.5,5.1-3.1,10.3-4.8,15.4
			c-1.7,5.1-3.5,10.7-5.3,16.7c-1.8,6-3.8,12.7-5.9,20.1c-2.1,7.4-4.3,15.9-6.4,25.5c-2.6,11.4-4.8,22.8-6.7,34.2
			c-1.9,11.5-3.8,23-5.5,34.5c-1.7,11.6-3.6,23.2-5.8,35c-2.1,11.8-4.7,23.7-7.7,35.7c-1.1,4.3-2.9,8.1-5.6,11.4
			c-2.7,3.3-5.7,6.2-9.2,8.5c-3.4,2.4-7.1,4.2-10.9,5.5c-3.9,1.3-7.5,1.9-10.9,1.9c-3.4,0-6.7-0.3-9.8-0.8c-3.1-0.5-5.5-1.8-7.2-3.7
			c-2.6-2.8-4.6-5.9-6.1-9.3c-1.5-3.4-2.2-7.1-2.2-10.9c0-1.1,0.1-2.1,0.2-3.1c0.1-1,0.3-2,0.5-3.1L2831.7,556.9z"/>
			<path class="st0" d="M2817.6,761c-3.6,0-7.1-0.3-10.5-0.9c-4-0.7-7.2-2.4-9.5-5c-2.8-3.1-5.1-6.6-6.8-10.4
			c-1.7-3.9-2.6-8.1-2.6-12.5c0-1.2,0.1-2.4,0.2-3.5c0.1-1.1,0.3-2.2,0.5-3.4l0-0.1l38.9-169.3c2-8.5,4.3-17.8,6.9-27.9
			c2.7-10.1,5.6-20.8,8.7-31.7c2.9-10.3,6-21.1,9.5-33.1c3.2-11.2,6.4-22,9.5-32.2c3.2-10.8,6-20.1,8.5-28.7
			c2.6-8.8,4.8-16.5,6.8-22.7c4-13.8,7.9-27.8,11.5-41.7c3.6-13.9,7.2-28.7,10.6-44l0.1-0.5l0.2-0.5c4.7-9.1,11.1-15.7,19.2-19.6
			c7.8-3.8,16.4-5.7,25.5-5.7h1l0.9,0.5c7.4,4,13.4,9.5,17.7,16.3c4.4,6.9,6.6,14.8,6.6,23.5c0,5.9-1,12.6-2.9,20.1
			c-1.8,7.2-4.2,15.1-7,23.4c-2.8,8.3-5.9,17.1-9.4,26.2c-3.4,9-6.7,18.4-9.9,28l-18,52.7c-5.9,17.4-11.9,36-17.6,55.4
			c-1.5,5.2-3.1,10.4-4.9,15.5c-1.7,5.1-3.5,10.7-5.3,16.6c-1.8,6.1-3.8,12.8-5.9,20c-2.1,7.3-4.3,15.8-6.4,25.3
			c-2.5,11.2-4.8,22.7-6.7,34c-1.9,11.5-3.8,23.1-5.4,34.5c-1.7,11.6-3.7,23.4-5.8,35.1c-2.1,11.8-4.8,23.9-7.8,35.9
			c-1.2,4.8-3.4,9.2-6.4,12.9c-2.9,3.6-6.3,6.7-10,9.3c-3.7,2.6-7.7,4.6-11.9,6C2825.5,760.3,2821.4,761,2817.6,761z M2796.8,727
			c-0.2,1-0.3,1.8-0.4,2.6c-0.1,0.8-0.1,1.7-0.1,2.6c0,3.3,0.6,6.4,1.9,9.3c1.3,3,3.1,5.8,5.4,8.2c1.2,1.3,2.8,2.1,5,2.5
			c2.9,0.5,6,0.7,9.1,0.7c3,0,6.2-0.6,9.7-1.7c3.5-1.2,6.8-2.8,9.9-5c3.1-2.1,5.9-4.7,8.3-7.7c2.3-2.8,3.9-6.2,4.9-9.9
			c3-11.9,5.5-23.8,7.7-35.4c2.1-11.7,4.1-23.4,5.8-34.9c1.7-11.4,3.5-23.1,5.5-34.6c1.9-11.5,4.2-23.1,6.8-34.4
			c2.1-9.7,4.3-18.3,6.5-25.8c2.1-7.2,4.1-14,6-20.1c1.8-6,3.6-11.7,5.3-16.8c1.7-5,3.3-10.2,4.8-15.3c5.8-19.5,11.7-38.2,17.7-55.7
			l18-52.7c3.2-9.6,6.6-19.1,10-28.2c3.4-9,6.5-17.7,9.3-25.9c2.7-8.1,5-15.8,6.8-22.8c1.7-6.8,2.6-12.9,2.6-18.1
			c0-7.1-1.8-13.6-5.3-19.2c-3.4-5.4-8.1-9.8-13.8-13.1c-7.5,0.1-14.6,1.8-21,4.9c-6.4,3.1-11.4,8.2-15.3,15.6
			c-3.4,15.3-6.9,30-10.5,43.8c-3.6,14-7.5,28.1-11.6,42c-1.9,6.3-4.2,13.9-6.7,22.6c-2.5,8.6-5.3,18-8.5,28.8
			c-3.1,10.1-6.2,20.9-9.5,32.1c-3.4,12-6.5,22.8-9.5,33.1c-3.1,10.9-6,21.5-8.7,31.6c-2.6,10-4.9,19.3-6.9,27.7L2796.8,727z"/>
		</g>
		<g>
			<path class="st0" d="M3082.3,352.5c1.3-5.6,2.9-11.5,4.8-17.8c1.9-6.3,4.5-12.1,7.7-17.3c3.2-5.2,7.4-9.6,12.5-13.2
			c5.1-3.5,11.7-5.3,19.6-5.3c7.5,0,14.2,2.1,20.1,6.3c5.9,4.2,11.2,8.4,15.9,12.7c5.6,3.6,10.9,11,16.1,22.2
			c5.1,11.1,10.4,24.8,15.9,41.1c5.5,16.3,11.3,34.7,17.7,55.3c6.3,20.6,13.3,42.1,20.9,64.6c7.6,22.5,16.1,45.5,25.5,68.9
			c9.4,23.5,20.1,46.3,32.1,68.6c1.9,3.4,4.2,7.4,6.7,12c2.6,4.6,5.2,8.9,7.9,13c2.7,4.1,5.1,7.5,7.4,10.3c2.2,2.8,3.9,4.2,5,4.2
			c0.6,0,1.4-1.6,2.2-4.8c0.9-3.2,1.8-7.1,2.9-11.6c1.1-4.5,2.2-9.1,3.4-13.8c1.2-4.7,2.3-8.6,3.4-11.6c4.1-9.8,8.5-21.1,13.3-33.9
			c4.8-12.7,10.2-28.2,16.1-46.3c5.9-18.1,12.4-39.6,19.4-64.4c7.1-24.8,14.9-54.3,23.5-88.3c2.1-8.4,4.4-17.8,6.9-28.4
			c2.5-10.6,4.8-21.4,7.1-32.4c2.2-11,4.2-21.8,5.9-32.3c1.7-10.5,2.9-19.6,3.5-27.3c0-1.3,0.1-3.5,0.3-6.7
			c0.2-3.2,0.6-6.9,1.1-10.9c0.5-4.1,1.2-8.3,2.1-12.7c0.9-4.4,2-8.4,3.4-12c1.4-3.6,3.2-6.6,5.3-9c2.1-2.4,4.7-3.5,7.7-3.5
			c3,0,6.7,0.4,11.1,1.3c4.4,0.9,8.4,2.1,12,3.9c4.1,5.6,7.8,12.3,11.1,20.1c3.3,7.8,5,18.4,5,31.6c0,8.4-0.9,18.4-2.6,30
			c-1.7,11.7-3.9,24.2-6.6,37.6c-2.7,13.4-5.7,27.1-9,41.3c-3.3,14.1-6.7,27.7-10.1,40.6c-3.4,13-6.7,24.8-9.8,35.7
			c-3.1,10.8-5.7,19.8-7.9,26.8c-3.9,12.4-7.9,25.2-12,38.4c-4.2,13.2-8.8,27-13.8,41.4c-5,14.5-10.5,29.8-16.4,45.9
			c-5.9,16.2-12.5,33.5-19.8,51.9c-3.2,8.4-6.9,16.7-11.1,25.1c-4.2,8.4-8.9,15.9-14.3,22.6c-5.4,6.7-11.4,12.2-18.2,16.4
			c-6.7,4.2-14.3,6.3-22.6,6.3c-4.9,0-10-0.7-15.3-2.1c-5.3-1.4-9.7-4.2-13.3-8.5c-17.6-20.3-33.2-43.4-46.9-69.2
			c-13.7-25.8-26-52.8-36.8-81c-10.8-28.2-20.4-56.6-28.8-85.5c-8.4-28.8-16-56.4-22.8-82.7l-1.9-7.4c-0.9-3-1.7-6-2.4-9.2
			c-0.8-3.1-1.5-5.9-2.2-8.5c-0.8-2.6-1.6-4.7-2.6-6.3c-1-1.6-2.1-2.4-3.4-2.4s-2.9,2.4-4.8,7.1c-1.9,4.7-3.9,10-5.8,15.9
			c-1.9,5.9-3.7,11.6-5.3,17.2c-1.6,5.6-2.6,9.1-3.1,10.6c-1.5,5.6-3.8,13.5-6.7,23.9c-3,10.4-6.4,22.1-10.1,35.2
			c-3.8,13.1-7.8,26.9-12.2,41.4c-4.4,14.6-8.6,28.6-12.7,42.2c-4.1,13.6-7.9,26.2-11.6,37.7c-3.6,11.6-6.6,20.9-9,27.9
			c-1.9,5.6-4.3,12.7-7.1,21.5c-2.8,8.8-5.6,17.6-8.4,26.5c-2.8,8.9-5.4,17-7.7,24.3c-2.4,7.3-3.9,12.1-4.5,14.5
			c-2.6,8.1-6.4,14.3-11.4,18.5c-5,4.2-10.1,6.3-15.3,6.3c-3.2,0-6.4-1.1-9.6-3.4c-3.2-2.2-6.1-5-8.5-8.2c-2.5-3.2-4.5-6.7-6.1-10.4
			c-1.6-3.7-2.4-7.1-2.4-10.1c0-1.7,0.5-4.4,1.6-8.2c1.1-3.7,2.8-10.1,5.1-19.1l8.4-33.1L3082.3,352.5z"/>
			<path class="st0" d="M2998.8,756.8c-4,0-8-1.4-11.9-4.1c-3.5-2.5-6.7-5.5-9.4-9c-2.7-3.5-4.9-7.3-6.6-11.3
			c-1.8-4.2-2.7-8.2-2.7-11.7c0-2.1,0.6-5.2,1.8-9.3c1-3.6,2.7-9.8,5.1-19l8.4-33.3l95-307.6c1.3-5.6,2.9-11.6,4.9-18
			c2-6.6,4.8-12.8,8.1-18.3c3.5-5.7,8.1-10.5,13.7-14.4c5.8-4,13.2-6,21.9-6c8.3,0,15.8,2.4,22.4,7c5.9,4.2,11.3,8.5,16.1,12.8
			c6.2,4.1,11.8,11.9,17.2,23.7c5.2,11.2,10.6,25.2,16.1,41.5c5.4,16.2,11.4,34.8,17.7,55.4c6.2,20.3,13.3,42,20.8,64.5
			c7.5,22.3,16.1,45.4,25.5,68.7c9.3,23.2,20.1,46.2,31.9,68.2c1.9,3.4,4.1,7.4,6.7,12c2.5,4.5,5.1,8.8,7.7,12.8
			c2.6,3.9,5,7.3,7.2,10c0.1,0.2,0.2,0.3,0.4,0.4c0.8-3.1,1.7-6.8,2.8-11.1c1.1-4.6,2.2-9.2,3.4-13.9c1.2-4.8,2.4-8.8,3.5-11.9
			l0.1-0.2c4.1-9.8,8.5-21.2,13.3-33.8c4.8-12.6,10.1-28.1,16-46.1c5.9-18,12.4-39.6,19.4-64.3c7-24.6,14.9-54.3,23.4-88.2
			c2.2-8.4,4.5-17.9,6.9-28.4c2.5-10.7,4.8-21.5,7-32.3c2.2-10.9,4.2-21.7,5.9-32.1c1.7-10.3,2.8-19.3,3.5-26.8
			c0-1.4,0.1-3.7,0.3-6.8c0.2-3.3,0.6-7,1.1-11.2c0.5-4.1,1.3-8.5,2.1-12.9c0.9-4.6,2.1-8.9,3.6-12.7c1.6-4.1,3.6-7.5,6.1-10.3
			c2.9-3.2,6.6-4.8,10.7-4.8c3.3,0,7.1,0.4,11.8,1.4c4.7,0.9,9.1,2.3,13,4.2l0.9,0.4l0.6,0.8c4.2,5.8,8.1,12.8,11.5,20.9
			c3.5,8.3,5.3,19.5,5.3,33.2c0,8.5-0.9,18.8-2.6,30.6c-1.7,11.7-3.9,24.4-6.6,37.8c-2.7,13.4-5.7,27.4-9,41.4
			c-3.3,14.1-6.7,27.8-10.1,40.7c-3.4,12.9-6.7,24.9-9.8,35.7c-3,10.6-5.7,19.7-7.9,26.9c-3.8,12.3-7.9,25.2-12.1,38.4
			c-4.1,13-8.8,27-13.8,41.5c-5,14.5-10.6,29.9-16.4,46c-5.9,16.1-12.5,33.6-19.8,52c-3.2,8.4-7,17-11.2,25.4
			c-4.3,8.6-9.2,16.4-14.7,23.3c-5.6,7.1-12.1,12.9-19.2,17.3c-7.4,4.6-15.7,6.9-24.8,6.9c-5.2,0-10.7-0.7-16.3-2.2
			c-6-1.6-11.2-4.9-15.4-9.8c-17.7-20.5-33.6-44-47.4-69.9c-13.7-25.8-26.2-53.2-37-81.4c-10.8-28.1-20.5-57-28.9-85.8
			c-8.3-28.7-16-56.6-22.8-82.8l-1.9-7.4c-0.9-3-1.7-6.1-2.4-9.2c-0.7-3.1-1.5-5.9-2.2-8.3c-0.5-1.8-1.1-3.3-1.7-4.5
			c-0.4,0.8-0.9,1.8-1.5,3.3c-1.9,4.6-3.8,9.9-5.7,15.6c-1.9,5.8-3.7,11.5-5.3,17.1l-0.8,2.8c-1.1,4-1.9,6.6-2.2,7.8
			c-1.5,5.5-3.8,13.6-6.8,23.9c-3,10.4-6.4,22.1-10.1,35.2c-3.7,12.9-7.8,26.9-12.2,41.5c-4.4,14.6-8.6,28.6-12.7,42.2
			c-4.1,13.6-8,26.4-11.6,37.8c-3.7,11.8-6.7,21-9,28c-2,5.7-4.3,12.9-7,21.5c-2.8,8.8-5.6,17.6-8.3,26.5
			c-2.8,8.9-5.4,17.1-7.7,24.3c-2.9,8.8-4,12.6-4.4,14.3l0,0.2c-2.8,8.8-7,15.7-12.7,20.3C3010.8,754.4,3004.8,756.8,2998.8,756.8z
			 M2991.1,661.4l-8.3,33c-2.4,9.3-4.1,15.6-5.2,19.2c-1.3,4.4-1.5,6.3-1.5,7.1c0,2.4,0.7,5.3,2.1,8.5c1.5,3.4,3.4,6.7,5.6,9.6
			c2.2,2.9,4.8,5.3,7.6,7.3c2.5,1.8,5,2.6,7.3,2.6c4.2,0,8.4-1.7,12.7-5.3c4.4-3.7,7.8-9.2,10.1-16.5c0.7-2.5,2.2-7.4,4.5-14.6
			c2.3-7.2,4.9-15.4,7.7-24.2c2.8-8.9,5.6-17.7,8.4-26.5c2.7-8.7,5.1-15.9,7.1-21.6c2.3-7,5.3-16.1,9-27.8
			c3.6-11.4,7.5-24.1,11.5-37.7c4.1-13.6,8.3-27.7,12.7-42.3c4.4-14.6,8.5-28.5,12.2-41.4c3.7-13.1,7.1-24.8,10.1-35.2
			c3-10.3,5.2-18.3,6.7-23.9c0.4-1.3,1.1-3.9,2.3-7.9l0.8-2.8c1.6-5.6,3.4-11.4,5.3-17.3c1.9-6,3.9-11.4,5.9-16.2
			c2.3-5.7,4.7-9.6,8.5-9.6c1.9,0,4.6,0.8,6.8,4.4c1.1,1.9,2.1,4.3,3,7.2c0.8,2.6,1.5,5.5,2.3,8.7c0.7,3,1.5,6,2.4,9l2,7.5
			c6.8,26.2,14.5,54,22.8,82.6c8.3,28.6,17.9,57.2,28.6,85.1c10.7,27.9,23,55,36.6,80.5c13.5,25.4,29.1,48.5,46.4,68.5
			c3.1,3.7,6.8,6.1,11.3,7.3c4.9,1.3,9.7,2,14.2,2c7.6,0,14.5-1.9,20.5-5.7c6.3-3.9,12.1-9.1,17.1-15.5c5.2-6.5,9.8-13.9,13.9-22
			c4.1-8.2,7.8-16.5,10.9-24.7c7.2-18.3,13.9-35.8,19.7-51.8c5.8-16,11.3-31.5,16.4-45.9c5-14.5,9.7-28.4,13.8-41.3
			c4.2-13.2,8.2-26.1,12-38.4c2.2-7.2,4.8-16.2,7.8-26.7c3.1-10.8,6.4-22.8,9.8-35.6c3.4-12.8,6.8-26.5,10.1-40.5
			c3.3-14,6.3-27.8,9-41.2c2.6-13.3,4.9-25.8,6.5-37.4c1.7-11.4,2.5-21.3,2.5-29.5c0-12.7-1.6-22.8-4.7-30.1
			c-3-7.1-6.4-13.3-10-18.4c-3.1-1.4-6.5-2.4-10.2-3.1c-4.1-0.8-7.6-1.2-10.3-1.2c-1.9,0-3.4,0.7-4.8,2.2c-1.8,2-3.3,4.6-4.5,7.7
			c-1.3,3.4-2.4,7.2-3.2,11.4c-0.8,4.3-1.5,8.5-2,12.4c-0.5,4-0.9,7.6-1.1,10.7c-0.3,3.8-0.3,5.6-0.3,6.5l0,0.3
			c-0.6,7.8-1.8,17.1-3.6,27.6c-1.7,10.6-3.7,21.5-6,32.4c-2.2,10.9-4.6,21.8-7.1,32.6c-2.4,10.5-4.8,20.1-6.9,28.5
			c-8.6,34-16.5,63.8-23.5,88.4c-7,24.7-13.6,46.4-19.5,64.6c-5.9,18.1-11.3,33.8-16.1,46.4c-4.8,12.6-9.3,24-13.3,33.9
			c-1,2.8-2.1,6.6-3.2,11.1c-1.2,4.6-2.3,9.2-3.4,13.8c-1.1,4.5-2.1,8.4-2.9,11.7c-0.8,3.1-2.1,7.8-6.1,7.8c-2.5,0-4.8-1.6-8.1-5.7
			c-2.3-2.9-4.9-6.4-7.6-10.6c-2.7-4.1-5.4-8.6-8-13.3c-2.6-4.6-4.8-8.6-6.7-12c-12-22.3-22.9-45.6-32.3-69.1
			c-9.4-23.4-18-46.7-25.6-69.1c-7.6-22.5-14.6-44.3-20.9-64.7c-6.3-20.5-12.2-39.1-17.6-55.2c-5.4-16.1-10.7-29.8-15.7-40.7
			c-4.8-10.4-9.7-17.3-14.6-20.5l-0.3-0.2l-0.2-0.2c-4.6-4.2-9.8-8.3-15.5-12.4c-5.2-3.7-11.1-5.5-17.8-5.5
			c-7.1,0-12.9,1.5-17.3,4.6c-4.6,3.2-8.5,7.2-11.4,12c-3,4.9-5.5,10.5-7.3,16.4c-1.9,6.2-3.5,12.1-4.7,17.6l-0.1,0.3L2991.1,661.4z
			 M3319,674.1C3319,674.1,3319,674.1,3319,674.1C3319,674.1,3319,674.1,3319,674.1z"/>
		</g>
		<g>
			<path class="st0" d="M3481,693.1c9.8-7.1,19.9-11.5,30-13.3c10.2-1.8,20.9-3.3,32.3-4.3l80.3-325.1c-0.9,0-3.3-0.1-7.2-0.2
			c-4-0.1-8.4-0.4-13.2-1c-4.8-0.5-9.6-1.4-14.3-2.7c-4.7-1.3-8.2-3.1-10.6-5.5c-1.1-1.5-2.4-3.5-4-5.9c-1.6-2.5-3.2-5.1-4.7-8
			c-1.5-2.9-2.8-5.8-3.9-8.8c-1.1-3-1.6-6-1.6-9c0-4.9,2.1-9,6.3-12.4c4.2-3.3,9.3-6,15.4-8c6.1-2,12.7-3.5,19.8-4.3
			c7.1-0.9,13.5-1.3,19.3-1.3c27,0,52,0.8,75,2.4c23,1.6,44.5,5.1,64.6,10.4c20,5.4,38.9,13,56.5,22.8c17.7,9.9,34.5,23,50.6,39.5
			c6,6.2,11.7,13.2,17.2,20.9s10.3,16.1,14.5,25.2c4.2,9.1,7.5,18.8,10.1,29.2c2.6,10.4,3.9,21.4,3.9,32.9c0,6.2-0.3,12.7-1,19.6
			c-0.6,6.9-1.5,12.7-2.6,17.7c-6.2,24.8-14.9,46.9-26.2,66c-11.2,19.2-24.3,36.2-39.2,51.1c-14.9,14.9-31.2,27.8-49,38.7
			c-17.8,10.9-36.2,20.5-55.3,28.6c-19.1,8.1-38.4,15.2-58.1,21.2c-19.7,6-38.9,11.4-57.5,16.1h0.3c-8.4,2.6-17.3,4.8-27,6.7
			c-9.6,1.9-19.4,3.5-29.2,4.8c-9.9,1.3-19.7,2.3-29.4,3.1c-9.7,0.8-18.9,1.1-27.5,1.1c-9.4,0-17.3-0.6-23.8-1.8
			c-6.4-1.2-11.6-2.8-15.6-4.8c-4-2-6.8-4.3-8.5-6.9c-1.7-2.6-2.6-5.4-2.6-8.4c0-4.3,1.2-8.7,3.7-13.3
			C3471.4,701.5,3475.4,697.1,3481,693.1z M3622.3,600.9c-2.6,10.9-5.2,22.2-8,33.7c-2.8,11.6-5.5,22.9-8,34.1l7.4-1.6
			c4.7-1.1,11.1-2.7,19.1-4.8c8-2.1,17.3-4.8,27.8-8c10.5-3.2,21.5-7.1,33.1-11.6c11.6-4.5,23.8-9.9,36.8-16.2
			c13-6.3,25.8-13.5,38.4-21.5c12.6-8,24.7-16.8,36.3-26.2c11.6-9.4,21.7-19.5,30.5-30.4c8.8-10.8,15.8-22.2,21-34.1
			c5.2-11.9,7.9-24.3,7.9-37.1c0-13.1-2.6-25.4-7.7-37.1c-5.1-11.7-12-22.5-20.7-32.4c-8.7-10-18.7-18.8-30.2-26.7
			c-11.5-7.8-23.4-14.5-35.8-20.1c-12.4-5.6-25-9.8-37.7-12.7c-12.7-2.9-24.8-4.3-36.1-4.3c-16.1,41.6-29.8,83.7-41.1,126.6
			C3643.7,513.3,3632.8,556.8,3622.3,600.9z"/>
			<path class="st0" d="M3515.7,745.3c-9.6,0-17.9-0.6-24.5-1.8c-6.8-1.2-12.4-3-16.7-5.2c-4.6-2.3-7.9-5.1-10-8.2
			c-2.1-3.2-3.2-6.8-3.2-10.6c0-4.9,1.4-10.1,4.2-15.2c2.7-5.1,7.2-9.9,13.2-14.4l0,0c10.3-7.4,20.9-12.1,31.7-14
			c9.4-1.7,19.4-3.1,29.8-4.1l78.4-317.5c-0.7,0-1.5,0-2.3-0.1c-4-0.1-8.6-0.4-13.5-1c-5-0.6-10-1.5-14.9-2.8
			c-5.5-1.5-9.5-3.6-12.4-6.5l-0.2-0.2l-0.2-0.3c-1.1-1.5-2.4-3.5-4.1-6.1c-1.7-2.6-3.3-5.4-4.9-8.4c-1.6-3-2.9-6.2-4.1-9.3
			c-1.2-3.4-1.8-6.9-1.8-10.3c0-6.2,2.6-11.4,7.8-15.5c4.5-3.6,10.1-6.5,16.6-8.7c6.3-2.1,13.2-3.6,20.5-4.5
			c7.2-0.9,13.9-1.3,19.8-1.3c26.9,0,52.3,0.8,75.3,2.4c23.2,1.6,45.1,5.2,65.3,10.6c20.2,5.4,39.6,13.2,57.5,23.2
			c17.9,10,35.3,23.5,51.5,40.2c6.1,6.4,12.1,13.5,17.6,21.4c5.6,7.9,10.6,16.6,14.8,25.9c4.3,9.3,7.7,19.4,10.4,29.9
			c2.6,10.7,4,22.1,4,33.9c0,6.3-0.3,13-1,20c-0.7,7-1.5,13.1-2.6,18.1l0,0.1c-6.3,25.1-15.2,47.7-26.6,67.1
			c-11.4,19.4-24.8,36.8-39.8,51.9c-15,15-31.8,28.3-49.7,39.3c-17.9,11-36.6,20.7-55.8,28.9c-19.1,8.2-38.8,15.3-58.6,21.3
			c-19.1,5.8-37.8,11.1-55.8,15.6l-1.4,0.4c-8.4,2.6-17.6,4.9-27.4,6.8c-9.7,1.9-19.6,3.6-29.5,4.9c-9.9,1.3-19.9,2.3-29.6,3.1
			C3533.7,744.9,3524.3,745.3,3515.7,745.3z M3483.3,696.3c-5,3.7-8.7,7.6-10.9,11.7c-2.1,4-3.2,7.8-3.2,11.4c0,2.2,0.6,4.2,1.9,6.1
			c1.3,2,3.7,3.9,7,5.6c3.6,1.9,8.5,3.3,14.5,4.4c6.2,1.1,13.9,1.7,23.1,1.7c8.5,0,17.6-0.4,27.2-1.1c9.6-0.7,19.4-1.8,29.2-3
			c9.6-1.3,19.3-2.8,28.7-4.7l26.8-6.8c18.4-4.6,37.7-10,57.3-16c19.5-5.9,38.9-13,57.7-21.1c18.8-8,37.2-17.5,54.7-28.3
			c17.4-10.7,33.7-23.5,48.3-38.1c14.6-14.6,27.6-31.5,38.6-50.3c11-18.7,19.6-40.6,25.7-64.9c1-4.7,1.9-10.5,2.5-17.1
			c0.6-6.7,0.9-13.2,0.9-19.2c0-11.2-1.3-21.9-3.7-32c-2.5-10.1-5.8-19.7-9.9-28.5c-4.1-8.8-8.8-17.1-14.1-24.6
			c-5.3-7.5-11-14.4-16.8-20.4c-15.7-16.1-32.4-29.2-49.7-38.8c-17.3-9.6-36-17.2-55.6-22.4c-19.7-5.3-41.2-8.7-63.8-10.3
			c-22.8-1.6-48-2.4-74.7-2.4c-5.6,0-11.9,0.4-18.8,1.3c-6.8,0.8-13.1,2.2-19,4.2c-5.6,1.9-10.4,4.4-14.2,7.4
			c-3.2,2.6-4.8,5.5-4.8,9.2c0,2.5,0.5,5.1,1.4,7.6c1,2.8,2.2,5.6,3.6,8.3c1.4,2.8,2.9,5.3,4.5,7.7c1.5,2.3,2.7,4.1,3.7,5.5
			c1.9,1.7,4.7,3.2,8.6,4.2c4.5,1.2,9.1,2.1,13.7,2.6c4.7,0.5,9,0.8,12.8,0.9c5.2,0.1,6.7,0.2,7.1,0.2h5.1l-82.2,332.8l-2.8,0.3
			c-11.2,1.1-21.9,2.5-32,4.3C3502.2,685.4,3492.6,689.6,3483.3,696.3z M3600.9,673.9l1.4-6.1c2.6-11.3,5.3-22.8,8-34.1
			c2.9-12.3,5.6-23.3,8-33.7l0,0c10.4-43.9,21.5-87.8,32.8-130.5c11.3-42.7,25.2-85.5,41.3-127l1-2.6h2.7c11.6,0,24.1,1.5,37,4.4
			c12.9,2.9,25.9,7.3,38.5,12.9c12.6,5.6,24.8,12.5,36.4,20.4c11.7,8,22.1,17.2,31,27.3c8.9,10.2,16.1,21.5,21.4,33.5
			c5.3,12.1,8,25.2,8,38.7c0,13.3-2.8,26.4-8.2,38.7c-5.4,12.2-12.6,23.9-21.6,35c-8.9,11-19.4,21.4-31.1,30.9
			c-11.6,9.5-23.9,18.4-36.7,26.5c-12.7,8.1-25.8,15.4-38.8,21.7c-13,6.3-25.5,11.8-37.1,16.4c-11.6,4.5-22.8,8.4-33.4,11.7
			c-10.6,3.2-20,6-27.9,8.1c-8.1,2.1-14.5,3.8-19.3,4.9L3600.9,673.9z M3626.2,601.8c-2.5,10.4-5.1,21.5-8,33.8
			c-2.2,9.2-4.4,18.6-6.6,27.9l1.2-0.3c4.6-1,11-2.7,18.9-4.8c7.9-2.1,17.2-4.8,27.6-8c10.3-3.2,21.4-7,32.8-11.5
			c11.4-4.4,23.7-9.9,36.5-16.1c12.7-6.2,25.5-13.4,38-21.3c12.5-7.9,24.6-16.6,35.9-25.9c11.3-9.2,21.4-19.2,29.9-29.8
			c8.5-10.5,15.4-21.6,20.5-33.1c5-11.3,7.5-23.3,7.5-35.5c0-12.4-2.5-24.4-7.4-35.5c-5-11.2-11.7-21.8-20.1-31.4
			c-8.4-9.6-18.3-18.4-29.4-26c-11.2-7.6-23-14.3-35.2-19.7c-12.1-5.4-24.6-9.6-37-12.4c-11.4-2.6-22.3-4-32.5-4.2
			c-15.5,40.4-29,82-40,123.6C3647.6,514.1,3636.6,558,3626.2,601.8L3626.2,601.8z"/>
		</g>
	</g>
</svg>
